The Oracle (2008) [BluRay 1080px264][Dual][English & Russian]
 
http://www.jadedvideo.com/Wicked/Oracle_Blu_Ray.5-48484.html 
http://www.adultdvdfree.com/catalog/product_info.php/products_id/46387 
http://www.adultdvdempire.com/1440763/oracle-the-porn-movies.html?partner_id=42023867

Studio  Wicked Pictures 
Release Date  Dec 13, 2008 
Category  Feature, HD - Shot In High Def, Couples, Blu-ray 
Director  Francois Clousot 
Starring  Eva Angelina, Roxy Deville, Kaylani Lei, Brooke Haven, India Summers, Derrick Pierce, Brooke Banner, Marcus London, Ryder Skye, Randy Spears, Chris Cannon, Barrett Blade 

She Knows All!

The Oracle, an amulet with the power to control the dead, or is it the dead who control the amulet? Cassie (Kaylani Lei) is about to find out after she stumbles into the clutches of the amulet. This young swindler, working ...    Full Descriptionwith her sometimes boyfriend, cons people into thinking she's a fortune teller. As long as she uses The Oracle for positive things, all is well. But when her boyfriend attempts to use it in their cons, unspeakable things begin to happen. Eventually Cassie learns to harness its powers to explore her sexuality and discovers a new life on the other side...   



Complete name : The Oracle 1080p BluRay x264.mkv
Format : Matroska
File size : 6.60 GiB
Duration : 1h 25mn
Overall bit rate : 11.1 Mbps

Video
ID : 1
Format : AVC
Format/Info : Advanced Video Codec
Duration : 1h 25mn
Bit rate : 10.3 Mbps
Nominal bit rate : 10.5 Mbps
Width : 1 920 pixels
Height : 1 080 pixels
Display aspect ratio : 16:9
Frame rate : 23.976 fps
Resolution : 8 bits
Colorimetry : 4:2:0
Scan type : Progressive
Bits/(Pixel*Frame) : 0.207
Stream size : 6.12 GiB (93%)

Audio #1
ID : 2
Format : AC-3
Format/Info : Audio Coding 3
Codec ID : A_AC3
Duration : 1h 25mn
Bit rate mode : Constant
Bit rate : 192 Kbps
Channel(s) : 2 channels
Channel positions : Front: L R
Sampling rate : 48.0 KHz
Stream size : 117 MiB (2%)
Language : Russian

Audio #2
ID : 3
Format : AC-3
Format/Info : Audio Coding 3
Codec ID : A_AC3
Duration : 1h 25mn
Bit rate mode : Constant
Bit rate : 384 Kbps
Channel(s) : 6 channels
Channel positions : Front: L C R, Side: L R, LFE
Sampling rate : 48.0 KHz
Stream size : 234 MiB (3%)
Language : English 